<?xml version="1.0" standalone="no"?>
<!DOCTYPE svg PUBLIC "-//W3C//DTD SVG 20010904//EN"
 "http://www.w3.org/TR/2001/REC-SVG-20010904/DTD/svg10.dtd">
<svg version="1.0" xmlns="http://www.w3.org/2000/svg"
 width="260.000000pt" height="260.000000pt" viewBox="0 0 260.000000 260.000000"
 preserveAspectRatio="xMidYMid meet">
<metadata>
Created by potrace 1.14, written by Peter Selinger 2001-2017
</metadata>
<g transform="translate(0.000000,260.000000) scale(0.100000,-0.100000)"
fill="#000000" stroke="none">
<path d="M0 1300 l0 -1300 1300 0 1300 0 0 1300 0 1300 -1300 0 -1300 0 0
-1300z m735 289 c63 -30 124 -90 156 -154 35 -71 34 -198 -1 -270 -31 -64 -92
-124 -155 -156 -41 -20 -65 -24 -135 -24 -100 1 -160 24 -226 90 -167 168 -97
457 130 531 61 20 170 12 231 -17z m735 -89 l150 100 0 -300 0 -300 -300 0
-300 0 0 300 0 300 150 -100 150 -100 150 100z m555 -200 l300 -300 -303 0
-302 0 0 300 c0 165 1 300 3 300 1 0 137 -135 302 -300z"/>
</g>
</svg>
